# xmcd CD database file
#
# Track frame offsets:
#	150
#	26338
#	46912
#	77364
#	90791
#	119174
#	133406
#	159072
#	180177
#	200980
#	217860
#	232882
#
# Disc length: 3576 seconds
#
# Revision: 0
# Processed by: cddbd v1.5.1PL0 Copyright (c) Steve Scherf et al.
# Submitted via: CDex 1.51
#
DISCID=8b0df60c
DTITLE=Shabby Blues Band - Kísért a múlt
DYEAR=2003
DGENRE=Blues
TTITLE0=Csillag balladája
TTITLE1=Kísért a múlt
TTITLE2=Miért nem szóltál
TTITLE3=Ritkán látlak
TTITLE4=Elsõ kõ
TTITLE5=Rock'n'roll
TTITLE6=A blues maradt
TTITLE7=Fecsegõ lány
TTITLE8=Van remény
TTITLE9=Pedró
TTITLE10=Sörben bízok
TTITLE11=Egyedül
EXTD=YEAR: 2003
EXTT0=
EXTT1=
EXTT2=
EXTT3=
EXTT4=
EXTT5=
EXTT6=
EXTT7=
EXTT8=
EXTT9=
EXTT10=
EXTT11=
PLAYORDER=
